# xmcd CD database file
#
# Track frame offsets:
#	150
#	15391
#	36005
#	54988
#	86180
#	135944
#	149761
#	169803
#	172716
#	177714
#	186447
#	198200
#	205245
#	211096
#	218855
#	236777
#	248031
#
# Disc length: 3595 seconds
#
# Revision: 0
# Processed by: cddbd v1.5.2PL0 Copyright (c) Steve Scherf et al.
# Submitted via: CDex 1.51
#
DISCID=f20e0911
DTITLE=Gerhard Muthspiel - Bassinstinct
DYEAR=2005
DGENRE=Jazz
TTITLE0=Neige grave
TTITLE1=Taquassim 3
TTITLE2=Wie gut wärs
TTITLE3=Kurz-long
TTITLE4=Meditations
TTITLE5=Filmrequiem Part 1
TTITLE6=Filmrequiem Part 2
TTITLE7=Filmrequiem Part 3
TTITLE8=Filmrequiem Part 4
TTITLE9=Filmrequiem Part 5
TTITLE10=Filmrequiem Part 6
TTITLE11=Filmrequiem Part 7
TTITLE12=Filmrequiem Part 8
TTITLE13=Und i tua nur vorm Leit'n
TTITLE14=It's (scho) quiet around the lake
TTITLE15=Funky Freedom
TTITLE16=Cujoo
EXTD=YEAR: 2005
EXTT0=
EXTT1=
EXTT2=
EXTT3=
EXTT4=
EXTT5=
EXTT6=
EXTT7=
EXTT8=
EXTT9=
EXTT10=
EXTT11=
EXTT12=
EXTT13=
EXTT14=
EXTT15=
EXTT16=
PLAYORDER=
